<svg width="385" height="343" viewBox="0 0 385 343" fill="none" xmlns="http://www.w3.org/2000/svg">
<path d="M210.235 241.463L209.671 248.1C209.605 248.875 209.234 249.592 208.64 250.094C208.046 250.595 207.278 250.84 206.504 250.775L151.258 246.069C150.484 246.002 149.769 245.63 149.268 245.036C148.767 244.441 148.522 243.672 148.587 242.897L149.151 236.259C149.218 235.484 149.589 234.767 150.183 234.266C150.777 233.764 151.545 233.519 152.319 233.584L207.564 238.291C208.338 238.358 209.054 238.729 209.555 239.324C210.056 239.918 210.3 240.688 210.235 241.463Z" fill="#6C63FF"/>
<path d="M188.853 263.563H85.2367C86.4301 254.914 84.9581 246.106 81.0177 238.317C77.0772 230.528 70.8561 224.129 63.1861 219.976C55.5161 215.823 46.7627 214.114 38.0965 215.077C29.4303 216.041 21.2643 219.63 14.6902 225.366C8.11621 231.102 3.44755 238.711 1.3085 247.176C-0.830557 255.64 -0.338052 264.557 2.72016 272.734C5.77837 280.911 11.2565 287.958 18.4222 292.933C25.5878 297.907 34.0993 300.573 42.8187 300.574C48.0571 300.579 53.2517 299.619 58.1433 297.742V339.389C58.1433 340.347 58.5232 341.265 59.1995 341.942C59.8757 342.62 60.7928 343 61.7491 343H188.853C189.809 343 190.727 342.62 191.403 341.942C192.079 341.265 192.459 340.347 192.459 339.389V267.174C192.459 266.216 192.079 265.298 191.403 264.621C190.727 263.944 189.809 263.563 188.853 263.563Z" fill="#E6E6E6"/>
<path d="M196.516 333.522H69.4114C68.3359 333.521 67.3049 333.092 66.5444 332.331C65.7839 331.569 65.3561 330.537 65.3549 329.46V257.244C65.3561 256.167 65.7839 255.135 66.5444 254.373C67.3049 253.612 68.3359 253.183 69.4114 253.182H196.516C197.591 253.183 198.622 253.612 199.383 254.373C200.143 255.135 200.571 256.167 200.572 257.244V329.46C200.571 330.537 200.143 331.569 199.383 332.331C198.622 333.092 197.591 333.521 196.516 333.522ZM69.4114 254.085C68.575 254.086 67.773 254.419 67.1815 255.011C66.5901 255.604 66.2573 256.407 66.2564 257.244V329.46C66.2573 330.297 66.5901 331.1 67.1815 331.693C67.773 332.285 68.575 332.618 69.4114 332.619H196.516C197.352 332.618 198.154 332.285 198.745 331.693C199.337 331.1 199.67 330.297 199.671 329.46V257.244C199.67 256.407 199.337 255.604 198.745 255.011C198.154 254.419 197.352 254.086 196.516 254.085H69.4114Z" fill="#3F3D56"/>
<path d="M196.714 246.428L196.15 253.065C196.083 253.84 195.712 254.557 195.118 255.058C194.524 255.56 193.756 255.805 192.982 255.74L137.737 251.033C136.963 250.967 136.247 250.595 135.746 250C135.245 249.406 135.001 248.637 135.066 247.862L135.63 241.224C135.696 240.449 136.067 239.732 136.661 239.231C137.255 238.729 138.023 238.484 138.797 238.549L194.043 243.256C194.817 243.322 195.532 243.694 196.033 244.289C196.534 244.883 196.778 245.652 196.714 246.428Z" fill="#6C63FF"/>
<path d="M281.702 332.619H0.450745V333.522H281.702V332.619Z" fill="#3F3D56"/>
<path d="M48.6781 289.29C40.1202 289.29 31.7545 286.749 24.6389 281.988C17.5233 277.227 11.9773 270.459 8.70234 262.542C5.42738 254.625 4.5705 245.913 6.24006 237.508C7.90962 229.103 12.0306 221.382 18.082 215.322C24.1333 209.263 31.8432 205.136 40.2367 203.464C48.6301 201.792 57.3302 202.65 65.2366 205.93C73.1431 209.209 79.9009 214.763 84.6554 221.888C89.4099 229.014 91.9476 237.391 91.9476 245.961C91.9346 257.448 87.3717 268.462 79.2599 276.585C71.1481 284.708 60.1499 289.277 48.6781 289.29ZM48.6781 203.534C40.2985 203.534 32.1071 206.023 25.1397 210.684C18.1723 215.346 12.7419 221.972 9.53517 229.725C6.32844 237.477 5.48941 246.008 7.12419 254.238C8.75897 262.468 12.7941 270.027 18.7194 275.961C24.6447 281.894 32.1939 285.935 40.4125 287.572C48.6311 289.209 57.1499 288.369 64.8917 285.158C72.6334 281.947 79.2504 276.509 83.9058 269.532C88.5613 262.555 91.0461 254.352 91.0461 245.961C91.0334 234.712 86.5656 223.928 78.6228 215.975C70.68 208.021 59.9109 203.547 48.6781 203.534Z" fill="#3F3D56"/>
<path d="M142.619 181.657C155.941 181.657 166.741 170.843 166.741 157.502C166.741 144.161 155.941 133.346 142.619 133.346C129.296 133.346 118.496 144.161 118.496 157.502C118.496 170.843 129.296 181.657 142.619 181.657Z" fill="#6C63FF"/>
<path d="M146.168 166.455L146.143 165.552C147.82 165.505 149.299 165.4 150.41 164.587C150.725 164.344 150.984 164.035 151.169 163.682C151.354 163.33 151.461 162.941 151.483 162.543C151.503 162.3 151.466 162.056 151.376 161.829C151.286 161.603 151.144 161.4 150.963 161.237C150.226 160.613 149.039 160.815 148.174 161.212L147.428 161.555L148.859 151.088L149.752 151.21L148.535 160.114C149.71 159.768 150.799 159.917 151.545 160.548C151.832 160.798 152.056 161.111 152.202 161.463C152.347 161.815 152.41 162.195 152.384 162.575C152.357 163.11 152.215 163.632 151.966 164.106C151.716 164.579 151.367 164.992 150.941 165.316C149.514 166.361 147.659 166.413 146.168 166.455Z" fill="#2F2E41"/>
<path d="M159.024 151.978H154.169V152.881H159.024V151.978Z" fill="#2F2E41"/>
<path d="M143.699 151.978H138.844V152.881H143.699V151.978Z" fill="#2F2E41"/>
<path d="M177.134 254.311H120.343C119.805 254.31 119.29 254.096 118.91 253.715C118.529 253.334 118.316 252.818 118.315 252.28V206.594C118.321 201.056 120.521 195.747 124.431 191.831C128.342 187.915 133.644 185.712 139.174 185.706H157.753C158.285 185.707 158.796 185.916 159.175 186.29C159.554 186.663 159.772 187.171 159.781 187.703L179.163 252.247V252.28C179.162 252.818 178.948 253.334 178.568 253.715C178.188 254.096 177.672 254.31 177.134 254.311Z" fill="#2F2E41"/>
<path d="M139.41 204.191L146.062 204.243C146.839 204.25 147.581 204.565 148.126 205.12C148.671 205.674 148.974 206.422 148.969 207.2L148.533 262.72C148.526 263.498 148.211 264.241 147.658 264.787C147.104 265.332 146.357 265.636 145.58 265.63L138.928 265.578C138.152 265.571 137.409 265.256 136.864 264.702C136.32 264.147 136.016 263.399 136.022 262.621L136.457 207.101C136.464 206.324 136.779 205.58 137.333 205.035C137.886 204.489 138.633 204.186 139.41 204.191Z" fill="#6C63FF"/>
<path d="M132.738 201.955C132.738 199.321 133.783 196.795 135.642 194.933C137.502 193.071 140.024 192.025 142.654 192.025C145.284 192.025 147.806 193.071 149.666 194.933C151.525 196.795 152.57 199.321 152.57 201.955V224.07H132.738V201.955Z" fill="#2F2E41"/>
<path d="M135.493 146.125C137.778 143.771 141.097 143.366 144.22 143.622C147.565 143.896 150.734 145.009 154.015 145.628C157.251 146.238 160.759 146.512 163.852 145.16C165.28 144.517 166.518 143.515 167.444 142.251C168.37 140.987 168.953 139.505 169.136 137.948C169.534 134.678 168.689 131.378 166.767 128.705C164.648 125.707 161.639 123.512 158.51 121.669C151.767 117.696 144.248 114.22 136.357 113.577C129.234 112.997 121.68 114.968 116.669 120.296C111.972 125.29 109.972 132.259 109.557 138.971C109.026 147.537 111.022 155.996 111.745 164.49C112.307 171.099 112.096 179.034 106.736 183.78C101.995 187.978 94.7758 187.928 89.186 185.635C82.5419 182.909 77.8798 176.789 74.3537 170.775C73.456 169.244 72.6122 167.682 71.7939 166.107C71.392 165.334 70.2247 166.018 70.6263 166.791C73.9263 173.141 77.7647 179.484 83.537 183.885C88.584 187.733 95.3182 189.586 101.556 187.96C104.581 187.204 107.283 185.494 109.263 183.083C111.401 180.416 112.523 177.133 112.991 173.776C113.492 170.181 113.317 166.56 112.954 162.962C112.518 158.63 111.821 154.33 111.344 150.003C110.532 142.634 110.42 134.986 113.327 128.023C114.581 124.918 116.529 122.142 119.021 119.908C121.748 117.605 125.021 116.043 128.524 115.37C136.168 113.781 143.939 115.932 150.858 119.173C154.351 120.735 157.694 122.613 160.845 124.784C163.638 126.786 166.24 129.408 167.316 132.752C168.243 135.633 168.166 139.044 166.317 141.557C164.341 144.242 160.917 144.912 157.778 144.751C151.329 144.419 144.831 140.666 138.343 142.808C136.902 143.274 135.596 144.084 134.537 145.167C133.93 145.793 134.885 146.751 135.493 146.125Z" fill="#2F2E41"/>
<rect x="129" width="151" height="43" rx="5" fill="#D9D9D9"/>
<rect x="156" y="40" width="229" height="43" rx="5" fill="#D9D9D9"/>
<path d="M155.526 14.9091C155.424 14.0455 155.009 13.375 154.282 12.8977C153.555 12.4205 152.663 12.1818 151.606 12.1818C150.833 12.1818 150.157 12.3068 149.577 12.5568C149.004 12.8068 148.555 13.1506 148.231 13.5881C147.913 14.0256 147.754 14.5227 147.754 15.0795C147.754 15.5455 147.864 15.946 148.086 16.2812C148.313 16.6108 148.603 16.8864 148.955 17.108C149.308 17.3239 149.677 17.5028 150.063 17.6449C150.45 17.7812 150.805 17.892 151.129 17.9773L152.901 18.4545C153.356 18.5739 153.862 18.7386 154.418 18.9489C154.981 19.1591 155.518 19.446 156.029 19.8097C156.546 20.1676 156.972 20.6278 157.308 21.1903C157.643 21.7528 157.81 22.4432 157.81 23.2614C157.81 24.2045 157.563 25.0568 157.069 25.8182C156.58 26.5795 155.864 27.1847 154.921 27.6335C153.984 28.0824 152.844 28.3068 151.504 28.3068C150.254 28.3068 149.171 28.1051 148.256 27.7017C147.347 27.2983 146.631 26.7358 146.109 26.0142C145.592 25.2926 145.299 24.4545 145.231 23.5H147.413C147.469 24.1591 147.691 24.7045 148.077 25.1364C148.469 25.5625 148.964 25.8807 149.56 26.0909C150.163 26.2955 150.81 26.3977 151.504 26.3977C152.31 26.3977 153.035 26.267 153.677 26.0057C154.319 25.7386 154.827 25.3693 155.202 24.8977C155.577 24.4205 155.765 23.8636 155.765 23.2273C155.765 22.6477 155.603 22.1761 155.279 21.8125C154.955 21.4489 154.529 21.1534 154.001 20.9261C153.472 20.6989 152.901 20.5 152.288 20.3295L150.14 19.7159C148.776 19.3239 147.697 18.7642 146.901 18.0369C146.106 17.3097 145.708 16.358 145.708 15.1818C145.708 14.2045 145.972 13.3523 146.501 12.625C147.035 11.892 147.751 11.3239 148.648 10.9205C149.552 10.5114 150.56 10.3068 151.674 10.3068C152.799 10.3068 153.799 10.5085 154.674 10.9119C155.549 11.3097 156.242 11.8551 156.754 12.5483C157.271 13.2415 157.543 14.0284 157.572 14.9091H155.526ZM166.501 28.2727C165.24 28.2727 164.152 27.9943 163.237 27.4375C162.328 26.875 161.626 26.0909 161.132 25.0852C160.643 24.0739 160.399 22.8977 160.399 21.5568C160.399 20.2159 160.643 19.0341 161.132 18.0114C161.626 16.983 162.314 16.1818 163.195 15.608C164.081 15.0284 165.115 14.7386 166.297 14.7386C166.979 14.7386 167.652 14.8523 168.317 15.0795C168.982 15.3068 169.587 15.6761 170.132 16.1875C170.678 16.6932 171.112 17.3636 171.436 18.1989C171.76 19.0341 171.922 20.0625 171.922 21.2841V22.1364H161.831V20.3977H169.876C169.876 19.6591 169.729 19 169.433 18.4205C169.143 17.8409 168.729 17.3835 168.189 17.0483C167.655 16.7131 167.024 16.5455 166.297 16.5455C165.496 16.5455 164.803 16.7443 164.217 17.142C163.638 17.5341 163.192 18.0455 162.879 18.6761C162.567 19.3068 162.411 19.983 162.411 20.7045V21.8636C162.411 22.8523 162.581 23.6903 162.922 24.3778C163.268 25.0597 163.749 25.5795 164.362 25.9375C164.976 26.2898 165.689 26.4659 166.501 26.4659C167.03 26.4659 167.507 26.392 167.933 26.2443C168.365 26.0909 168.737 25.8636 169.05 25.5625C169.362 25.2557 169.604 24.875 169.774 24.4205L171.717 24.9659C171.513 25.625 171.169 26.2045 170.686 26.7045C170.203 27.1989 169.607 27.5852 168.896 27.8636C168.186 28.1364 167.388 28.2727 166.501 28.2727ZM180.47 28.2727C179.209 28.2727 178.121 27.9943 177.206 27.4375C176.297 26.875 175.595 26.0909 175.101 25.0852C174.612 24.0739 174.368 22.8977 174.368 21.5568C174.368 20.2159 174.612 19.0341 175.101 18.0114C175.595 16.983 176.283 16.1818 177.163 15.608C178.05 15.0284 179.084 14.7386 180.266 14.7386C180.947 14.7386 181.621 14.8523 182.286 15.0795C182.95 15.3068 183.555 15.6761 184.101 16.1875C184.646 16.6932 185.081 17.3636 185.405 18.1989C185.729 19.0341 185.891 20.0625 185.891 21.2841V22.1364H175.8V20.3977H183.845C183.845 19.6591 183.697 19 183.402 18.4205C183.112 17.8409 182.697 17.3835 182.158 17.0483C181.624 16.7131 180.993 16.5455 180.266 16.5455C179.464 16.5455 178.771 16.7443 178.186 17.142C177.607 17.5341 177.161 18.0455 176.848 18.6761C176.536 19.3068 176.379 19.983 176.379 20.7045V21.8636C176.379 22.8523 176.55 23.6903 176.891 24.3778C177.237 25.0597 177.717 25.5795 178.331 25.9375C178.945 26.2898 179.658 26.4659 180.47 26.4659C180.999 26.4659 181.476 26.392 181.902 26.2443C182.334 26.0909 182.706 25.8636 183.018 25.5625C183.331 25.2557 183.572 24.875 183.743 24.4205L185.686 24.9659C185.482 25.625 185.138 26.2045 184.655 26.7045C184.172 27.1989 183.575 27.5852 182.865 27.8636C182.155 28.1364 181.357 28.2727 180.47 28.2727ZM188.95 28V14.9091H190.893V16.9545H191.064C191.337 16.2557 191.777 15.7131 192.385 15.3267C192.993 14.9347 193.723 14.7386 194.575 14.7386C195.439 14.7386 196.158 14.9347 196.732 15.3267C197.311 15.7131 197.763 16.2557 198.087 16.9545H198.223C198.558 16.2784 199.061 15.7415 199.732 15.3438C200.402 14.9403 201.206 14.7386 202.143 14.7386C203.314 14.7386 204.271 15.1051 205.016 15.8381C205.76 16.5653 206.132 17.6989 206.132 19.2386V28H204.121V19.2386C204.121 18.2727 203.857 17.5824 203.328 17.1676C202.8 16.7528 202.178 16.5455 201.462 16.5455C200.541 16.5455 199.828 16.8239 199.322 17.3807C198.817 17.9318 198.564 18.6307 198.564 19.4773V28H196.518V19.0341C196.518 18.2898 196.277 17.6903 195.794 17.2358C195.311 16.7756 194.689 16.5455 193.928 16.5455C193.405 16.5455 192.916 16.6847 192.462 16.9631C192.013 17.2415 191.649 17.6278 191.371 18.1222C191.098 18.6108 190.962 19.1761 190.962 19.8182V28H188.95ZM219.082 17.8409L217.276 18.3523C217.162 18.0511 216.994 17.7585 216.773 17.4744C216.557 17.1847 216.261 16.946 215.886 16.7585C215.511 16.571 215.031 16.4773 214.446 16.4773C213.645 16.4773 212.977 16.6619 212.443 17.0312C211.915 17.3949 211.651 17.858 211.651 18.4205C211.651 18.9205 211.832 19.3153 212.196 19.6051C212.56 19.8949 213.128 20.1364 213.901 20.3295L215.844 20.8068C217.014 21.0909 217.886 21.5256 218.46 22.1108C219.034 22.6903 219.321 23.4375 219.321 24.3523C219.321 25.1023 219.105 25.7727 218.673 26.3636C218.247 26.9545 217.651 27.4205 216.884 27.7614C216.116 28.1023 215.224 28.2727 214.207 28.2727C212.872 28.2727 211.767 27.983 210.892 27.4034C210.017 26.8239 209.463 25.9773 209.23 24.8636L211.139 24.3864C211.321 25.0909 211.665 25.6193 212.17 25.9716C212.682 26.3239 213.349 26.5 214.173 26.5C215.111 26.5 215.855 26.3011 216.406 25.9034C216.963 25.5 217.241 25.017 217.241 24.4545C217.241 24 217.082 23.6193 216.764 23.3125C216.446 23 215.957 22.767 215.298 22.6136L213.116 22.1023C211.918 21.8182 211.037 21.3778 210.474 20.7812C209.918 20.179 209.639 19.4261 209.639 18.5227C209.639 17.7841 209.847 17.1307 210.261 16.5625C210.682 15.9943 211.253 15.5483 211.974 15.2244C212.702 14.9006 213.526 14.7386 214.446 14.7386C215.741 14.7386 216.759 15.0227 217.497 15.5909C218.241 16.1591 218.77 16.9091 219.082 17.8409ZM231.11 10.5455V28H229.099V10.5455H231.11ZM234.794 28V14.9091H236.805V28H234.794ZM235.817 12.7273C235.425 12.7273 235.087 12.5938 234.803 12.3267C234.524 12.0597 234.385 11.7386 234.385 11.3636C234.385 10.9886 234.524 10.6676 234.803 10.4006C235.087 10.1335 235.425 10 235.817 10C236.209 10 236.544 10.1335 236.822 10.4006C237.107 10.6676 237.249 10.9886 237.249 11.3636C237.249 11.7386 237.107 12.0597 236.822 12.3267C236.544 12.5938 236.209 12.7273 235.817 12.7273ZM242.364 23.2273L242.33 20.7386H242.739L248.467 14.9091H250.955L244.853 21.0795H244.683L242.364 23.2273ZM240.489 28V10.5455H242.501V28H240.489ZM248.808 28L243.694 21.5227L245.126 20.125L251.364 28H248.808ZM258.494 28.2727C257.232 28.2727 256.144 27.9943 255.229 27.4375C254.32 26.875 253.619 26.0909 253.124 25.0852C252.636 24.0739 252.391 22.8977 252.391 21.5568C252.391 20.2159 252.636 19.0341 253.124 18.0114C253.619 16.983 254.306 16.1818 255.187 15.608C256.073 15.0284 257.107 14.7386 258.289 14.7386C258.971 14.7386 259.644 14.8523 260.309 15.0795C260.974 15.3068 261.579 15.6761 262.124 16.1875C262.67 16.6932 263.104 17.3636 263.428 18.1989C263.752 19.0341 263.914 20.0625 263.914 21.2841V22.1364H253.823V20.3977H261.869C261.869 19.6591 261.721 19 261.425 18.4205C261.136 17.8409 260.721 17.3835 260.181 17.0483C259.647 16.7131 259.016 16.5455 258.289 16.5455C257.488 16.5455 256.795 16.7443 256.21 17.142C255.63 17.5341 255.184 18.0455 254.871 18.6761C254.559 19.3068 254.403 19.983 254.403 20.7045V21.8636C254.403 22.8523 254.573 23.6903 254.914 24.3778C255.261 25.0597 255.741 25.5795 256.354 25.9375C256.968 26.2898 257.681 26.4659 258.494 26.4659C259.022 26.4659 259.499 26.392 259.925 26.2443C260.357 26.0909 260.729 25.8636 261.042 25.5625C261.354 25.2557 261.596 24.875 261.766 24.4205L263.71 24.9659C263.505 25.625 263.161 26.2045 262.678 26.7045C262.195 27.1989 261.599 27.5852 260.888 27.8636C260.178 28.1364 259.38 28.2727 258.494 28.2727Z" fill="#24464D"/>
<path d="M171.519 72.9091C171.178 72.9091 170.874 72.8807 170.607 72.8239C170.34 72.7727 170.156 72.7216 170.053 72.6705L170.565 70.8977C171.053 71.0227 171.485 71.0682 171.86 71.0341C172.235 71 172.567 70.8324 172.857 70.5312C173.153 70.2358 173.423 69.7557 173.667 69.0909L174.042 68.0682L169.201 54.9091H171.383L174.996 65.3409H175.133L178.746 54.9091H180.928L175.371 69.9091C175.121 70.5852 174.812 71.1449 174.442 71.5881C174.073 72.0369 173.644 72.3693 173.156 72.5852C172.673 72.8011 172.127 72.9091 171.519 72.9091ZM188.433 68.2727C187.251 68.2727 186.214 67.9915 185.322 67.429C184.435 66.8665 183.742 66.0795 183.242 65.0682C182.748 64.0568 182.501 62.875 182.501 61.5227C182.501 60.1591 182.748 58.9687 183.242 57.9517C183.742 56.9347 184.435 56.1449 185.322 55.5824C186.214 55.0199 187.251 54.7386 188.433 54.7386C189.614 54.7386 190.648 55.0199 191.535 55.5824C192.427 56.1449 193.12 56.9347 193.614 57.9517C194.114 58.9687 194.364 60.1591 194.364 61.5227C194.364 62.875 194.114 64.0568 193.614 65.0682C193.12 66.0795 192.427 66.8665 191.535 67.429C190.648 67.9915 189.614 68.2727 188.433 68.2727ZM188.433 66.4659C189.33 66.4659 190.069 66.2358 190.648 65.7756C191.228 65.3153 191.657 64.7102 191.935 63.9602C192.214 63.2102 192.353 62.3977 192.353 61.5227C192.353 60.6477 192.214 59.8324 191.935 59.0767C191.657 58.321 191.228 57.7102 190.648 57.2443C190.069 56.7784 189.33 56.5455 188.433 56.5455C187.535 56.5455 186.796 56.7784 186.217 57.2443C185.637 57.7102 185.208 58.321 184.93 59.0767C184.651 59.8324 184.512 60.6477 184.512 61.5227C184.512 62.3977 184.651 63.2102 184.93 63.9602C185.208 64.7102 185.637 65.3153 186.217 65.7756C186.796 66.2358 187.535 66.4659 188.433 66.4659ZM205.685 62.6477V54.9091H207.696V68H205.685V65.7841H205.548C205.241 66.4489 204.764 67.0142 204.116 67.4801C203.469 67.9403 202.651 68.1705 201.662 68.1705C200.844 68.1705 200.116 67.9915 199.48 67.6335C198.844 67.2699 198.344 66.7244 197.98 65.9972C197.616 65.2642 197.435 64.3409 197.435 63.2273V54.9091H199.446V63.0909C199.446 64.0455 199.713 64.8068 200.247 65.375C200.787 65.9432 201.474 66.2273 202.31 66.2273C202.81 66.2273 203.318 66.0994 203.835 65.8438C204.358 65.5881 204.795 65.196 205.148 64.6676C205.506 64.1392 205.685 63.4659 205.685 62.6477ZM220.141 60.125V68H218.13V50.5455H220.141V56.9545H220.312C220.619 56.2784 221.079 55.7415 221.692 55.3438C222.312 54.9403 223.136 54.7386 224.164 54.7386C225.056 54.7386 225.837 54.9176 226.508 55.2756C227.178 55.6278 227.698 56.1705 228.067 56.9034C228.442 57.6307 228.63 58.5568 228.63 59.6818V68H226.619V59.8182C226.619 58.7784 226.349 57.9744 225.809 57.4062C225.275 56.8324 224.533 56.5455 223.585 56.5455C222.925 56.5455 222.335 56.6847 221.812 56.9631C221.295 57.2415 220.886 57.6477 220.585 58.1818C220.289 58.7159 220.141 59.3636 220.141 60.125ZM236.162 68.3068C235.332 68.3068 234.58 68.1506 233.903 67.8381C233.227 67.5199 232.69 67.0625 232.293 66.4659C231.895 65.8636 231.696 65.1364 231.696 64.2841C231.696 63.5341 231.844 62.9261 232.139 62.4602C232.435 61.9886 232.83 61.6193 233.324 61.3523C233.818 61.0852 234.364 60.8864 234.96 60.7557C235.563 60.6193 236.168 60.5114 236.776 60.4318C237.571 60.3295 238.216 60.2528 238.71 60.2017C239.21 60.1449 239.574 60.0511 239.801 59.9205C240.034 59.7898 240.151 59.5625 240.151 59.2386V59.1705C240.151 58.3295 239.92 57.6761 239.46 57.2102C239.006 56.7443 238.315 56.5114 237.389 56.5114C236.429 56.5114 235.676 56.7216 235.131 57.142C234.585 57.5625 234.202 58.0114 233.98 58.4886L232.071 57.8068C232.412 57.0114 232.866 56.392 233.435 55.9489C234.009 55.5 234.634 55.1875 235.31 55.0114C235.991 54.8295 236.662 54.7386 237.321 54.7386C237.741 54.7386 238.224 54.7898 238.77 54.892C239.321 54.9886 239.852 55.1903 240.364 55.4972C240.881 55.804 241.31 56.267 241.651 56.8864C241.991 57.5057 242.162 58.3352 242.162 59.375V68H240.151V66.2273H240.048C239.912 66.5114 239.685 66.8153 239.366 67.1392C239.048 67.4631 238.625 67.7386 238.097 67.9659C237.568 68.1932 236.923 68.3068 236.162 68.3068ZM236.469 66.5C237.264 66.5 237.935 66.3438 238.48 66.0312C239.031 65.7188 239.446 65.3153 239.724 64.821C240.009 64.3267 240.151 63.8068 240.151 63.2614V61.4205C240.065 61.5227 239.878 61.6165 239.588 61.7017C239.304 61.7812 238.974 61.8523 238.599 61.9148C238.23 61.9716 237.869 62.0227 237.517 62.0682C237.17 62.108 236.889 62.142 236.673 62.1705C236.151 62.2386 235.662 62.3494 235.207 62.5028C234.759 62.6506 234.395 62.875 234.116 63.1761C233.844 63.4716 233.707 63.875 233.707 64.3864C233.707 65.0852 233.966 65.6136 234.483 65.9716C235.006 66.3239 235.668 66.5 236.469 66.5ZM256.069 54.9091L251.228 68H249.183L244.342 54.9091H246.523L250.137 65.3409H250.273L253.887 54.9091H256.069ZM263.744 68.2727C262.482 68.2727 261.394 67.9943 260.479 67.4375C259.57 66.875 258.869 66.0909 258.374 65.0852C257.886 64.0739 257.641 62.8977 257.641 61.5568C257.641 60.2159 257.886 59.0341 258.374 58.0114C258.869 56.983 259.556 56.1818 260.437 55.608C261.323 55.0284 262.357 54.7386 263.539 54.7386C264.221 54.7386 264.894 54.8523 265.559 55.0795C266.224 55.3068 266.829 55.6761 267.374 56.1875C267.92 56.6932 268.354 57.3636 268.678 58.1989C269.002 59.0341 269.164 60.0625 269.164 61.2841V62.1364H259.073V60.3977H267.119C267.119 59.6591 266.971 59 266.675 58.4205C266.386 57.8409 265.971 57.3835 265.431 57.0483C264.897 56.7131 264.266 56.5455 263.539 56.5455C262.738 56.5455 262.045 56.7443 261.46 57.142C260.88 57.5341 260.434 58.0455 260.121 58.6761C259.809 59.3068 259.653 59.983 259.653 60.7045V61.8636C259.653 62.8523 259.823 63.6903 260.164 64.3778C260.511 65.0597 260.991 65.5795 261.604 65.9375C262.218 66.2898 262.931 66.4659 263.744 66.4659C264.272 66.4659 264.749 66.392 265.175 66.2443C265.607 66.0909 265.979 65.8636 266.292 65.5625C266.604 65.2557 266.846 64.875 267.016 64.4205L268.96 64.9659C268.755 65.625 268.411 66.2045 267.928 66.7045C267.445 67.1989 266.849 67.5852 266.138 67.8636C265.428 68.1364 264.63 68.2727 263.744 68.2727ZM280.985 60.125V68H278.974V54.9091H280.917V56.9545H281.087C281.394 56.2898 281.86 55.7557 282.485 55.3523C283.11 54.9432 283.917 54.7386 284.906 54.7386C285.792 54.7386 286.567 54.9205 287.232 55.2841C287.897 55.642 288.414 56.1875 288.783 56.9205C289.153 57.6477 289.337 58.5682 289.337 59.6818V68H287.326V59.8182C287.326 58.7898 287.059 57.9886 286.525 57.4148C285.991 56.8352 285.258 56.5455 284.326 56.5455C283.684 56.5455 283.11 56.6847 282.604 56.9631C282.104 57.2415 281.71 57.6477 281.42 58.1818C281.13 58.7159 280.985 59.3636 280.985 60.125ZM298.331 68.2727C297.149 68.2727 296.112 67.9915 295.22 67.429C294.334 66.8665 293.641 66.0795 293.141 65.0682C292.646 64.0568 292.399 62.875 292.399 61.5227C292.399 60.1591 292.646 58.9687 293.141 57.9517C293.641 56.9347 294.334 56.1449 295.22 55.5824C296.112 55.0199 297.149 54.7386 298.331 54.7386C299.513 54.7386 300.547 55.0199 301.433 55.5824C302.325 56.1449 303.018 56.9347 303.513 57.9517C304.013 58.9687 304.263 60.1591 304.263 61.5227C304.263 62.875 304.013 64.0568 303.513 65.0682C303.018 66.0795 302.325 66.8665 301.433 67.429C300.547 67.9915 299.513 68.2727 298.331 68.2727ZM298.331 66.4659C299.229 66.4659 299.967 66.2358 300.547 65.7756C301.126 65.3153 301.555 64.7102 301.834 63.9602C302.112 63.2102 302.251 62.3977 302.251 61.5227C302.251 60.6477 302.112 59.8324 301.834 59.0767C301.555 58.321 301.126 57.7102 300.547 57.2443C299.967 56.7784 299.229 56.5455 298.331 56.5455C297.433 56.5455 296.695 56.7784 296.115 57.2443C295.536 57.7102 295.107 58.321 294.828 59.0767C294.55 59.8324 294.411 60.6477 294.411 61.5227C294.411 62.3977 294.55 63.2102 294.828 63.9602C295.107 64.7102 295.536 65.3153 296.115 65.7756C296.695 66.2358 297.433 66.4659 298.331 66.4659ZM319.776 54.9091V56.6136H312.992V54.9091H319.776ZM314.969 51.7727H316.981V64.25C316.981 64.8182 317.063 65.2443 317.228 65.5284C317.398 65.8068 317.614 65.9943 317.876 66.0909C318.143 66.1818 318.424 66.2273 318.719 66.2273C318.941 66.2273 319.123 66.2159 319.265 66.1932C319.407 66.1648 319.521 66.142 319.606 66.125L320.015 67.9318C319.879 67.983 319.688 68.0341 319.444 68.0852C319.2 68.142 318.89 68.1705 318.515 68.1705C317.947 68.1705 317.39 68.0483 316.844 67.804C316.305 67.5597 315.856 67.1875 315.498 66.6875C315.146 66.1875 314.969 65.5568 314.969 64.7955V51.7727ZM326.654 68.3068C325.825 68.3068 325.072 68.1506 324.396 67.8381C323.719 67.5199 323.183 67.0625 322.785 66.4659C322.387 65.8636 322.188 65.1364 322.188 64.2841C322.188 63.5341 322.336 62.9261 322.631 62.4602C322.927 61.9886 323.322 61.6193 323.816 61.3523C324.31 61.0852 324.856 60.8864 325.452 60.7557C326.055 60.6193 326.66 60.5114 327.268 60.4318C328.063 60.3295 328.708 60.2528 329.202 60.2017C329.702 60.1449 330.066 60.0511 330.293 59.9205C330.526 59.7898 330.643 59.5625 330.643 59.2386V59.1705C330.643 58.3295 330.413 57.6761 329.952 57.2102C329.498 56.7443 328.808 56.5114 327.881 56.5114C326.921 56.5114 326.168 56.7216 325.623 57.142C325.077 57.5625 324.694 58.0114 324.472 58.4886L322.563 57.8068C322.904 57.0114 323.359 56.392 323.927 55.9489C324.501 55.5 325.126 55.1875 325.802 55.0114C326.484 54.8295 327.154 54.7386 327.813 54.7386C328.234 54.7386 328.717 54.7898 329.262 54.892C329.813 54.9886 330.344 55.1903 330.856 55.4972C331.373 55.804 331.802 56.267 332.143 56.8864C332.484 57.5057 332.654 58.3352 332.654 59.375V68H330.643V66.2273H330.54C330.404 66.5114 330.177 66.8153 329.859 67.1392C329.54 67.4631 329.117 67.7386 328.589 67.9659C328.06 68.1932 327.415 68.3068 326.654 68.3068ZM326.961 66.5C327.756 66.5 328.427 66.3438 328.972 66.0312C329.523 65.7188 329.938 65.3153 330.217 64.821C330.501 64.3267 330.643 63.8068 330.643 63.2614V61.4205C330.558 61.5227 330.37 61.6165 330.08 61.7017C329.796 61.7812 329.467 61.8523 329.092 61.9148C328.722 61.9716 328.362 62.0227 328.009 62.0682C327.663 62.108 327.381 62.142 327.165 62.1705C326.643 62.2386 326.154 62.3494 325.7 62.5028C325.251 62.6506 324.887 62.875 324.609 63.1761C324.336 63.4716 324.2 63.875 324.2 64.3864C324.2 65.0852 324.458 65.6136 324.975 65.9716C325.498 66.3239 326.16 66.5 326.961 66.5ZM345.598 57.8409L343.791 58.3523C343.678 58.0511 343.51 57.7585 343.288 57.4744C343.072 57.1847 342.777 56.946 342.402 56.7585C342.027 56.571 341.547 56.4773 340.962 56.4773C340.161 56.4773 339.493 56.6619 338.959 57.0312C338.43 57.3949 338.166 57.858 338.166 58.4205C338.166 58.9205 338.348 59.3153 338.712 59.6051C339.075 59.8949 339.643 60.1364 340.416 60.3295L342.359 60.8068C343.53 61.0909 344.402 61.5256 344.976 62.1108C345.55 62.6903 345.837 63.4375 345.837 64.3523C345.837 65.1023 345.621 65.7727 345.189 66.3636C344.763 66.9545 344.166 67.4205 343.399 67.7614C342.632 68.1023 341.74 68.2727 340.723 68.2727C339.388 68.2727 338.283 67.983 337.408 67.4034C336.533 66.8239 335.979 65.9773 335.746 64.8636L337.655 64.3864C337.837 65.0909 338.18 65.6193 338.686 65.9716C339.197 66.3239 339.865 66.5 340.689 66.5C341.626 66.5 342.371 66.3011 342.922 65.9034C343.479 65.5 343.757 65.017 343.757 64.4545C343.757 64 343.598 63.6193 343.28 63.3125C342.962 63 342.473 62.767 341.814 62.6136L339.632 62.1023C338.433 61.8182 337.553 61.3778 336.99 60.7812C336.433 60.179 336.155 59.4261 336.155 58.5227C336.155 57.7841 336.362 57.1307 336.777 56.5625C337.197 55.9943 337.768 55.5483 338.49 55.2244C339.217 54.9006 340.041 54.7386 340.962 54.7386C342.257 54.7386 343.274 55.0227 344.013 55.5909C344.757 56.1591 345.286 56.9091 345.598 57.8409ZM350.739 63.2273L350.705 60.7386H351.114L356.842 54.9091H359.33L353.228 61.0795H353.058L350.739 63.2273ZM348.864 68V50.5455H350.876V68H348.864ZM357.183 68L352.069 61.5227L353.501 60.125L359.739 68H357.183ZM371.192 57.8409L369.385 58.3523C369.271 58.0511 369.104 57.7585 368.882 57.4744C368.666 57.1847 368.371 56.946 367.996 56.7585C367.621 56.571 367.141 56.4773 366.555 56.4773C365.754 56.4773 365.087 56.6619 364.553 57.0312C364.024 57.3949 363.76 57.858 363.76 58.4205C363.76 58.9205 363.942 59.3153 364.305 59.6051C364.669 59.8949 365.237 60.1364 366.01 60.3295L367.953 60.8068C369.124 61.0909 369.996 61.5256 370.57 62.1108C371.143 62.6903 371.43 63.4375 371.43 64.3523C371.43 65.1023 371.214 65.7727 370.783 66.3636C370.357 66.9545 369.76 67.4205 368.993 67.7614C368.226 68.1023 367.334 68.2727 366.317 68.2727C364.982 68.2727 363.876 67.983 363.001 67.4034C362.126 66.8239 361.572 65.9773 361.339 64.8636L363.249 64.3864C363.43 65.0909 363.774 65.6193 364.28 65.9716C364.791 66.3239 365.459 66.5 366.283 66.5C367.22 66.5 367.964 66.3011 368.516 65.9034C369.072 65.5 369.351 65.017 369.351 64.4545C369.351 64 369.192 63.6193 368.874 63.3125C368.555 63 368.067 62.767 367.408 62.6136L365.226 62.1023C364.027 61.8182 363.146 61.3778 362.584 60.7812C362.027 60.179 361.749 59.4261 361.749 58.5227C361.749 57.7841 361.956 57.1307 362.371 56.5625C362.791 55.9943 363.362 55.5483 364.084 55.2244C364.811 54.9006 365.635 54.7386 366.555 54.7386C367.851 54.7386 368.868 55.0227 369.607 55.5909C370.351 56.1591 370.879 56.9091 371.192 57.8409Z" fill="#24464D"/>
</svg>
